<mxfile host="app.diagrams.net" agent="Mozilla/5.0 (X11; Linux x86_64) AppleWebKit/537.36 (KHTML, like Gecko) Chrome/137.0.0.0 Safari/537.36" version="27.1.6">
  <diagram name="PÃ¡gina-1" id="DLqWTkpGS7aShhLpKxMu">
    <mxGraphModel dx="1223" dy="220" grid="1" gridSize="10" guides="1" tooltips="1" connect="1" arrows="1" fold="1" page="1" pageScale="1" pageWidth="827" pageHeight="1169" math="0" shadow="0">
      <root>
        <mxCell id="0" />
        <mxCell id="1" parent="0" />
        <mxCell id="7NZYWk-eq1FhUwQUjXSA-10" value="infrastructura" style="shape=folder;xSize=90;align=left;spacingLeft=10;align=left;verticalAlign=top;spacingLeft=5;spacingTop=-4;tabWidth=80;tabHeight=20;tabPosition=left;html=1;recursiveResize=0;" vertex="1" parent="1">
          <mxGeometry x="-150" y="90" width="380" height="430" as="geometry" />
        </mxCell>
        <mxCell id="7NZYWk-eq1FhUwQUjXSA-4" value="entry-point" style="shape=folder;xSize=90;align=left;spacingLeft=10;align=left;verticalAlign=top;spacingLeft=5;spacingTop=-4;tabWidth=70;tabHeight=20;tabPosition=left;html=1;recursiveResize=0;" vertex="1" parent="1">
          <mxGeometry x="-140" y="130" width="250" height="90" as="geometry" />
        </mxCell>
        <mxCell id="7NZYWk-eq1FhUwQUjXSA-5" value="DocumentRouteHandler" style="strokeColor=inherit;fillColor=inherit;gradientColor=inherit;shape=folder;spacingLeft=10;tabWidth=40;tabHeight=14;tabPosition=left;fontSize=10;html=1;whiteSpace=wrap;" vertex="1" parent="7NZYWk-eq1FhUwQUjXSA-4">
          <mxGeometry x="40" y="30" width="150" height="50" as="geometry" />
        </mxCell>
        <mxCell id="7NZYWk-eq1FhUwQUjXSA-8" value="Application&lt;div&gt;&lt;br&gt;&lt;/div&gt;" style="shape=folder;xSize=90;align=left;spacingLeft=10;align=left;verticalAlign=top;spacingLeft=5;spacingTop=-4;tabWidth=70;tabHeight=20;tabPosition=left;html=1;recursiveResize=0;" vertex="1" parent="1">
          <mxGeometry x="280" y="90" width="320" height="120" as="geometry" />
        </mxCell>
        <mxCell id="7NZYWk-eq1FhUwQUjXSA-9" value="UseCaseConfig" style="strokeColor=inherit;fillColor=inherit;gradientColor=inherit;shape=folder;spacingLeft=10;tabWidth=40;tabHeight=14;tabPosition=left;fontSize=10;html=1;whiteSpace=wrap;" vertex="1" parent="7NZYWk-eq1FhUwQUjXSA-8">
          <mxGeometry x="40" y="39" width="220" height="60" as="geometry" />
        </mxCell>
        <mxCell id="7NZYWk-eq1FhUwQUjXSA-12" value="driven-adapter" style="shape=folder;xSize=90;align=left;spacingLeft=10;align=left;verticalAlign=top;spacingLeft=5;spacingTop=-4;tabWidth=90;tabHeight=20;tabPosition=left;html=1;recursiveResize=0;" vertex="1" parent="1">
          <mxGeometry x="-140" y="240" width="250" height="240" as="geometry" />
        </mxCell>
        <mxCell id="7NZYWk-eq1FhUwQUjXSA-13" value="BDDocumentRepository" style="strokeColor=inherit;fillColor=inherit;gradientColor=inherit;shape=folder;spacingLeft=10;tabWidth=40;tabHeight=14;tabPosition=left;fontSize=10;html=1;whiteSpace=wrap;" vertex="1" parent="7NZYWk-eq1FhUwQUjXSA-12">
          <mxGeometry x="40" y="30" width="160" height="50" as="geometry" />
        </mxCell>
        <mxCell id="7NZYWk-eq1FhUwQUjXSA-14" value="S3Storage" style="strokeColor=inherit;fillColor=inherit;gradientColor=inherit;shape=folder;spacingLeft=10;tabWidth=40;tabHeight=14;tabPosition=left;fontSize=10;html=1;whiteSpace=wrap;" vertex="1" parent="7NZYWk-eq1FhUwQUjXSA-12">
          <mxGeometry x="40" y="95" width="150" height="50" as="geometry" />
        </mxCell>
        <mxCell id="7NZYWk-eq1FhUwQUjXSA-15" value="LambdaClasificationSQS" style="strokeColor=inherit;fillColor=inherit;gradientColor=inherit;shape=folder;spacingLeft=10;tabWidth=40;tabHeight=14;tabPosition=left;fontSize=10;html=1;whiteSpace=wrap;" vertex="1" parent="7NZYWk-eq1FhUwQUjXSA-12">
          <mxGeometry x="40" y="160" width="150" height="50" as="geometry" />
        </mxCell>
        <mxCell id="7NZYWk-eq1FhUwQUjXSA-16" value="&lt;div&gt;Domain&lt;/div&gt;" style="shape=folder;xSize=90;align=left;spacingLeft=10;align=left;verticalAlign=top;spacingLeft=5;spacingTop=-4;tabWidth=70;tabHeight=20;tabPosition=left;html=1;recursiveResize=0;" vertex="1" parent="1">
          <mxGeometry x="270" y="250" width="700" height="300" as="geometry" />
        </mxCell>
        <mxCell id="7NZYWk-eq1FhUwQUjXSA-17" value="UploadDocumentUseCase" style="strokeColor=inherit;fillColor=inherit;gradientColor=inherit;shape=folder;spacingLeft=10;tabWidth=40;tabHeight=14;tabPosition=left;fontSize=10;html=1;whiteSpace=wrap;" vertex="1" parent="7NZYWk-eq1FhUwQUjXSA-16">
          <mxGeometry x="210" y="60" width="220" height="60" as="geometry" />
        </mxCell>
        <mxCell id="7NZYWk-eq1FhUwQUjXSA-18" value="&lt;div&gt;ArchiveDocumentUseCase&lt;/div&gt;" style="strokeColor=inherit;fillColor=inherit;gradientColor=inherit;shape=folder;spacingLeft=10;tabWidth=40;tabHeight=14;tabPosition=left;fontSize=10;html=1;whiteSpace=wrap;" vertex="1" parent="7NZYWk-eq1FhUwQUjXSA-16">
          <mxGeometry x="470" y="60" width="220" height="60" as="geometry" />
        </mxCell>
        <mxCell id="7NZYWk-eq1FhUwQUjXSA-20" value="&amp;lt;&amp;lt;BDDocumentGateway&amp;gt;&amp;gt;" style="shape=note;size=15;align=left;spacingLeft=10;html=1;whiteSpace=wrap;" vertex="1" parent="7NZYWk-eq1FhUwQUjXSA-16">
          <mxGeometry x="10" y="60" width="170" height="40" as="geometry" />
        </mxCell>
        <mxCell id="7NZYWk-eq1FhUwQUjXSA-21" value="&amp;lt;&amp;lt;StorageGateway&amp;gt;&amp;gt;" style="shape=note;size=15;align=left;spacingLeft=10;html=1;whiteSpace=wrap;" vertex="1" parent="7NZYWk-eq1FhUwQUjXSA-16">
          <mxGeometry x="20" y="130" width="140" height="40" as="geometry" />
        </mxCell>
        <mxCell id="7NZYWk-eq1FhUwQUjXSA-22" value="&amp;lt;&amp;lt;Classificationgateway&amp;gt;&amp;gt;" style="shape=note;size=15;align=left;spacingLeft=10;html=1;whiteSpace=wrap;" vertex="1" parent="7NZYWk-eq1FhUwQUjXSA-16">
          <mxGeometry x="10" y="190" width="160" height="40" as="geometry" />
        </mxCell>
        <mxCell id="7NZYWk-eq1FhUwQUjXSA-33" style="edgeStyle=orthogonalEdgeStyle;rounded=0;orthogonalLoop=1;jettySize=auto;html=1;exitX=0;exitY=0;exitDx=0;exitDy=37;exitPerimeter=0;entryX=0;entryY=0;entryDx=170;entryDy=27.5;entryPerimeter=0;" edge="1" parent="7NZYWk-eq1FhUwQUjXSA-16" source="7NZYWk-eq1FhUwQUjXSA-18" target="7NZYWk-eq1FhUwQUjXSA-20">
          <mxGeometry relative="1" as="geometry">
            <Array as="points">
              <mxPoint x="460" y="97" />
              <mxPoint x="460" y="40" />
              <mxPoint x="200" y="40" />
              <mxPoint x="200" y="87" />
            </Array>
          </mxGeometry>
        </mxCell>
        <mxCell id="7NZYWk-eq1FhUwQUjXSA-39" style="edgeStyle=orthogonalEdgeStyle;rounded=0;orthogonalLoop=1;jettySize=auto;html=1;exitX=0;exitY=0;exitDx=0;exitDy=37;exitPerimeter=0;entryX=0;entryY=0;entryDx=140;entryDy=27.5;entryPerimeter=0;" edge="1" parent="7NZYWk-eq1FhUwQUjXSA-16" source="7NZYWk-eq1FhUwQUjXSA-17" target="7NZYWk-eq1FhUwQUjXSA-21">
          <mxGeometry relative="1" as="geometry" />
        </mxCell>
        <mxCell id="7NZYWk-eq1FhUwQUjXSA-40" style="edgeStyle=orthogonalEdgeStyle;rounded=0;orthogonalLoop=1;jettySize=auto;html=1;exitX=0;exitY=0;exitDx=0;exitDy=48.5;exitPerimeter=0;entryX=0;entryY=0;entryDx=160;entryDy=27.5;entryPerimeter=0;" edge="1" parent="7NZYWk-eq1FhUwQUjXSA-16" source="7NZYWk-eq1FhUwQUjXSA-17" target="7NZYWk-eq1FhUwQUjXSA-22">
          <mxGeometry relative="1" as="geometry" />
        </mxCell>
        <mxCell id="7NZYWk-eq1FhUwQUjXSA-23" style="edgeStyle=orthogonalEdgeStyle;rounded=0;orthogonalLoop=1;jettySize=auto;html=1;entryX=0;entryY=0;entryDx=0;entryDy=37;entryPerimeter=0;" edge="1" parent="1" source="7NZYWk-eq1FhUwQUjXSA-5" target="7NZYWk-eq1FhUwQUjXSA-9">
          <mxGeometry relative="1" as="geometry" />
        </mxCell>
        <mxCell id="7NZYWk-eq1FhUwQUjXSA-19" value="Document" style="strokeColor=inherit;fillColor=inherit;gradientColor=inherit;shape=folder;spacingLeft=10;tabWidth=40;tabHeight=14;tabPosition=left;fontSize=10;html=1;whiteSpace=wrap;" vertex="1" parent="1">
          <mxGeometry x="590" y="420" width="220" height="60" as="geometry" />
        </mxCell>
        <mxCell id="7NZYWk-eq1FhUwQUjXSA-28" style="edgeStyle=orthogonalEdgeStyle;rounded=0;orthogonalLoop=1;jettySize=auto;html=1;exitX=0;exitY=0;exitDx=220;exitDy=37;exitPerimeter=0;entryX=0;entryY=0;entryDx=130;entryDy=14;entryPerimeter=0;" edge="1" parent="1" source="7NZYWk-eq1FhUwQUjXSA-9" target="7NZYWk-eq1FhUwQUjXSA-18">
          <mxGeometry relative="1" as="geometry" />
        </mxCell>
        <mxCell id="7NZYWk-eq1FhUwQUjXSA-29" style="edgeStyle=orthogonalEdgeStyle;rounded=0;orthogonalLoop=1;jettySize=auto;html=1;exitX=0;exitY=0;exitDx=220;exitDy=25.5;exitPerimeter=0;entryX=0;entryY=0;entryDx=130;entryDy=14;entryPerimeter=0;" edge="1" parent="1" source="7NZYWk-eq1FhUwQUjXSA-9" target="7NZYWk-eq1FhUwQUjXSA-17">
          <mxGeometry relative="1" as="geometry" />
        </mxCell>
        <mxCell id="7NZYWk-eq1FhUwQUjXSA-30" style="edgeStyle=orthogonalEdgeStyle;rounded=0;orthogonalLoop=1;jettySize=auto;html=1;exitX=0.5;exitY=1;exitDx=0;exitDy=0;exitPerimeter=0;entryX=0;entryY=0;entryDx=130;entryDy=14;entryPerimeter=0;" edge="1" parent="1" source="7NZYWk-eq1FhUwQUjXSA-17" target="7NZYWk-eq1FhUwQUjXSA-19">
          <mxGeometry relative="1" as="geometry" />
        </mxCell>
        <mxCell id="7NZYWk-eq1FhUwQUjXSA-31" style="edgeStyle=orthogonalEdgeStyle;rounded=0;orthogonalLoop=1;jettySize=auto;html=1;exitX=0.5;exitY=1;exitDx=0;exitDy=0;exitPerimeter=0;entryX=0;entryY=0;entryDx=220;entryDy=37;entryPerimeter=0;" edge="1" parent="1" source="7NZYWk-eq1FhUwQUjXSA-18" target="7NZYWk-eq1FhUwQUjXSA-19">
          <mxGeometry relative="1" as="geometry" />
        </mxCell>
        <mxCell id="7NZYWk-eq1FhUwQUjXSA-36" style="edgeStyle=orthogonalEdgeStyle;rounded=0;orthogonalLoop=1;jettySize=auto;html=1;exitX=0;exitY=0;exitDx=150;exitDy=32;exitPerimeter=0;" edge="1" parent="1" source="7NZYWk-eq1FhUwQUjXSA-15" target="7NZYWk-eq1FhUwQUjXSA-22">
          <mxGeometry relative="1" as="geometry" />
        </mxCell>
        <mxCell id="7NZYWk-eq1FhUwQUjXSA-37" style="edgeStyle=orthogonalEdgeStyle;rounded=0;orthogonalLoop=1;jettySize=auto;html=1;exitX=0;exitY=0;exitDx=150;exitDy=32;exitPerimeter=0;entryX=0;entryY=0.5;entryDx=0;entryDy=0;entryPerimeter=0;" edge="1" parent="1" source="7NZYWk-eq1FhUwQUjXSA-14" target="7NZYWk-eq1FhUwQUjXSA-21">
          <mxGeometry relative="1" as="geometry" />
        </mxCell>
        <mxCell id="7NZYWk-eq1FhUwQUjXSA-38" style="edgeStyle=orthogonalEdgeStyle;rounded=0;orthogonalLoop=1;jettySize=auto;html=1;exitX=0;exitY=0;exitDx=160;exitDy=32;exitPerimeter=0;entryX=0;entryY=0.5;entryDx=0;entryDy=0;entryPerimeter=0;" edge="1" parent="1" source="7NZYWk-eq1FhUwQUjXSA-13" target="7NZYWk-eq1FhUwQUjXSA-20">
          <mxGeometry relative="1" as="geometry" />
        </mxCell>
        <mxCell id="7NZYWk-eq1FhUwQUjXSA-48" value="&lt;font style=&quot;font-size: 17px;&quot;&gt;Microservice: central-file-services&lt;/font&gt;" style="text;html=1;align=center;verticalAlign=middle;whiteSpace=wrap;rounded=0;strokeWidth=3;" vertex="1" parent="1">
          <mxGeometry x="220" y="30" width="300" height="30" as="geometry" />
        </mxCell>
      </root>
    </mxGraphModel>
  </diagram>
</mxfile>
